<svg width="800" height="274" viewBox="0 0 800 274" fill="none" xmlns="http://www.w3.org/2000/svg">
<path d="M186.078 145.583C185.748 110.955 214.368 94.3179 215.655 93.5257C199.546 69.9895 174.525 66.7545 165.612 66.3914C144.32 64.2127 124.052 78.9352 113.225 78.9352C102.397 78.9352 85.7274 66.6885 68.0669 67.0516C44.8278 67.3817 23.4043 80.5527 11.4216 101.349C-12.6758 143.14 5.28171 205.199 28.8179 239.166C40.3384 255.77 54.0046 274.487 72.0282 273.794C89.3915 273.101 95.9275 262.57 116.856 262.57C137.784 262.57 143.693 273.794 162.014 273.464C180.664 273.101 192.482 256.497 203.904 239.826C217.042 220.516 222.488 201.865 222.818 200.875C222.389 200.709 186.474 186.944 186.078 145.583Z" fill="#889BB9"/>
<path d="M151.648 43.8785C161.221 32.2919 167.658 16.216 165.909 0.173096C152.144 0.734268 135.473 9.34991 125.603 20.9365C116.757 31.1696 108.999 47.5426 111.112 63.2554C126.396 64.4438 142.108 55.432 151.648 43.8785ZM306.796 179.616L290.951 227.646H270.584L322.443 75.007H346.21L398.267 227.646H377.206L360.9 179.616H306.796ZM356.839 164.2L341.919 120.264C338.519 110.295 336.274 101.25 333.996 92.4033H333.567C331.289 101.448 328.814 110.724 325.876 120.033L310.955 164.167L356.839 164.2ZM413.716 153.802C413.716 139.773 413.287 128.417 412.791 118.019H430.683L431.607 136.835H432.036C440.19 123.466 453.097 115.543 470.988 115.543C497.495 115.543 517.4 137.957 517.4 171.264C517.4 210.679 493.402 230.122 467.588 230.122C453.097 230.122 440.421 223.784 433.852 212.923H433.423V272.474H413.716V153.802ZM433.39 183.016C433.39 185.987 433.819 188.661 434.314 191.17C437.945 204.968 449.928 214.508 464.221 214.508C485.282 214.508 497.528 197.309 497.528 172.156C497.528 150.171 485.975 131.421 464.914 131.421C451.347 131.421 438.671 141.159 434.776 156.113C434.083 158.589 433.423 161.56 433.423 164.266L433.39 183.016ZM537.999 153.802C537.999 139.773 537.57 128.417 537.074 118.019H554.966L555.89 136.835H556.319C564.473 123.466 577.38 115.543 595.271 115.543C621.778 115.543 641.684 137.957 641.684 171.264C641.684 210.679 617.685 230.122 591.871 230.122C577.38 230.122 564.704 223.784 558.135 212.923H557.706V272.474H537.999V153.802ZM557.706 183.016C557.706 185.987 558.135 188.661 558.63 191.17C562.261 204.968 574.244 214.508 588.537 214.508C609.598 214.508 621.844 197.309 621.844 172.156C621.844 150.171 610.291 131.421 589.23 131.421C575.663 131.421 562.987 141.159 559.092 156.113C558.399 158.589 557.739 161.56 557.739 164.266L557.706 183.016ZM662.315 66.8535H682.253V227.613H662.315V66.8535ZM722.327 176.447C722.756 203.383 739.988 214.508 759.893 214.508C774.153 214.508 782.769 212.032 790.229 208.863L793.629 223.123C786.631 226.292 774.615 229.923 757.186 229.923C723.45 229.923 703.28 207.741 703.28 174.665C703.28 141.588 722.756 115.543 754.677 115.543C790.46 115.543 799.967 147.002 799.967 167.171C799.967 171.264 799.538 174.4 799.274 176.447H722.327ZM780.755 162.187C780.986 149.511 775.54 129.804 753.126 129.804C732.956 129.804 724.143 148.388 722.558 162.187H780.755Z" fill="#889BB9"/>
</svg>
