<svg width="800" height="172" viewBox="0 0 800 172" fill="none" xmlns="http://www.w3.org/2000/svg">
<path d="M800 77.8703V63.8011H782.529V41.9288L781.941 42.1099L765.53 47.1309L765.207 47.2292V63.8019H739.306V54.5695C739.306 50.2705 740.267 46.9807 742.161 44.7868C744.043 42.6191 746.734 41.5171 750.166 41.5171C752.633 41.5171 755.187 42.0983 757.758 43.2444L758.403 43.5323V28.7155L758.1 28.6041C755.701 27.742 752.439 27.3078 748.396 27.3078C743.3 27.3078 738.67 28.4168 734.632 30.6146C730.591 32.8156 727.413 35.9575 725.186 39.9523C722.968 43.9425 721.842 48.551 721.842 53.6509V63.8011H709.676V77.8703H721.842V137.141H739.306V77.8703H765.207V115.536C765.207 131.049 772.524 138.91 786.955 138.91C789.326 138.91 791.822 138.632 794.37 138.088C796.964 137.529 798.731 136.971 799.771 136.375L800.001 136.239V122.04L799.29 122.51C798.342 123.141 797.162 123.657 795.778 124.041C794.389 124.432 793.228 124.628 792.328 124.628C788.948 124.628 786.447 123.717 784.895 121.919C783.326 120.105 782.53 116.933 782.53 112.495V77.8703H800ZM670.675 124.63C664.337 124.63 659.339 122.528 655.817 118.388C652.273 114.227 650.478 108.294 650.478 100.756C650.478 92.9797 652.273 86.8931 655.818 82.6584C659.343 78.4515 664.292 76.3164 670.533 76.3164C676.589 76.3164 681.409 78.3556 684.862 82.3805C688.332 86.4264 690.094 92.4643 690.094 100.332C690.094 108.296 688.438 114.413 685.172 118.505C681.928 122.567 677.051 124.63 670.675 124.63ZM671.452 62.0343C659.358 62.0343 649.753 65.578 642.904 72.5669C636.06 79.5566 632.589 89.2294 632.589 101.319C632.589 112.802 635.977 122.038 642.658 128.767C649.34 135.498 658.433 138.908 669.683 138.908C681.406 138.908 690.82 135.315 697.666 128.229C704.511 121.151 707.979 111.57 707.979 99.7628C707.979 88.1003 704.725 78.7951 698.304 72.1111C691.88 65.424 682.844 62.0343 671.452 62.0343ZM604.432 62.0343C596.205 62.0343 589.4 64.1385 584.202 68.2873C578.972 72.4609 576.32 77.9346 576.32 84.5583C576.32 88.0013 576.892 91.0597 578.019 93.6537C579.153 96.2563 580.907 98.5478 583.238 100.471C585.551 102.379 589.122 104.377 593.853 106.41C597.831 108.046 600.798 109.431 602.682 110.522C604.524 111.592 605.831 112.667 606.569 113.714C607.286 114.738 607.65 116.14 607.65 117.871C607.65 122.798 603.96 125.196 596.368 125.196C593.552 125.196 590.339 124.608 586.82 123.448C583.327 122.307 580.029 120.634 577.043 118.491L576.318 117.971V134.785L576.584 134.909C579.055 136.049 582.171 137.011 585.843 137.768C589.508 138.526 592.838 138.911 595.731 138.911C604.658 138.911 611.846 136.797 617.092 132.623C622.37 128.421 625.046 122.818 625.046 115.966C625.046 111.022 623.605 106.783 620.767 103.364C617.948 99.9725 613.054 96.8592 606.229 94.1072C600.792 91.9249 597.309 90.1132 595.872 88.7225C594.486 87.3791 593.783 85.4792 593.783 83.0732C593.783 80.9403 594.651 79.2316 596.434 77.8479C598.23 76.4572 600.73 75.7499 603.866 75.7499C606.776 75.7499 609.753 76.2096 612.714 77.1104C615.672 78.0112 618.271 79.2177 620.44 80.6935L621.154 81.181V65.2313L620.88 65.1136C618.879 64.2554 616.24 63.521 613.034 62.9251C609.843 62.3331 606.949 62.0343 604.432 62.0343ZM530.791 124.63C524.454 124.63 519.454 122.528 515.933 118.388C512.389 114.227 510.597 108.296 510.597 100.756C510.597 92.9797 512.391 86.8931 515.937 82.6584C519.458 78.4515 524.407 76.3164 530.651 76.3164C536.704 76.3164 541.525 78.3556 544.979 82.3805C548.45 86.4264 550.21 92.4643 550.21 100.332C550.21 108.296 548.553 114.413 545.288 118.505C542.044 122.567 537.17 124.63 530.791 124.63ZM531.57 62.0343C519.473 62.0343 509.867 65.578 503.022 72.5669C496.178 79.5566 492.705 89.2294 492.705 101.319C492.705 112.807 496.095 122.038 502.777 128.767C509.458 135.498 518.551 138.908 529.801 138.908C541.522 138.908 550.938 135.315 557.784 128.229C564.628 121.151 568.097 111.57 568.097 99.7628C568.097 88.1003 564.842 78.7951 558.42 72.1111C551.994 65.424 542.96 62.0343 531.57 62.0343ZM466.195 76.5021V63.8011H448.944V137.14H466.195V99.6242C466.195 93.2451 467.641 88.0044 470.495 84.0459C473.313 80.1347 477.068 78.1528 481.653 78.1528C483.207 78.1528 484.951 78.409 486.84 78.9159C488.71 79.4197 490.064 79.9668 490.863 80.5426L491.588 81.068V63.6758L491.308 63.5558C489.702 62.8732 487.429 62.5289 484.553 62.5289C480.218 62.5289 476.338 63.9219 473.015 66.6645C470.098 69.0752 467.99 72.3804 466.378 76.5021H466.195ZM418.049 62.0343C410.135 62.0343 403.075 63.7315 397.071 67.077C391.054 70.4302 386.401 75.2175 383.235 81.3048C380.083 87.3775 378.482 94.4709 378.482 102.382C378.482 109.311 380.034 115.67 383.101 121.274C386.169 126.888 390.512 131.28 396.01 134.326C401.5 137.368 407.845 138.91 414.87 138.91C423.069 138.91 430.069 137.271 435.681 134.039L435.907 133.909V118.104L435.182 118.633C432.64 120.485 429.799 121.963 426.742 123.028C423.693 124.092 420.913 124.63 418.476 124.63C411.707 124.63 406.272 122.512 402.328 118.336C398.375 114.155 396.37 108.283 396.37 100.895C396.37 93.4602 398.461 87.4379 402.58 82.9942C406.687 78.5637 412.131 76.3164 418.761 76.3164C424.431 76.3164 429.956 78.2364 435.184 82.0284L435.907 82.5539V65.9007L435.674 65.7691C433.707 64.6679 431.023 63.7586 427.693 63.069C424.376 62.381 421.132 62.0343 418.049 62.0343ZM366.601 63.8019H349.349V137.14H366.601V63.8019ZM358.151 32.5594C355.312 32.5594 352.836 33.526 350.801 35.4414C348.758 37.3621 347.722 39.7805 347.722 42.6346C347.722 45.4438 348.746 47.8181 350.769 49.6878C352.78 51.5521 355.264 52.497 358.152 52.497C361.04 52.497 363.533 51.5521 365.568 49.6909C367.615 47.8181 368.654 45.4446 368.654 42.6346C368.654 39.8804 367.643 37.4867 365.652 35.5187C363.662 33.5546 361.138 32.5594 358.151 32.5594ZM315.108 58.3909V137.14H332.714V34.8044H308.347L277.374 110.816L247.317 34.8044H221.958V137.139H238.503V58.3832H239.071L270.81 137.14H283.296L314.54 58.3909H315.108Z" fill="#889BB9"/>
<path d="M81.1557 81.763H0V0.607269H81.1557V81.763Z" fill="#889BB9"/>
<path d="M170.761 81.763H89.6065V0.607269H170.761V81.763Z" fill="#889BB9"/>
<path d="M81.1534 171.4H0V90.2448H81.1534V171.4Z" fill="#889BB9"/>
<path d="M170.761 171.4H89.6065V90.2448H170.761V171.4Z" fill="#889BB9"/>
</svg>
