<svg width="512" height="512" viewBox="0 0 512 512" fill="none" xmlns="http://www.w3.org/2000/svg">
<path d="M256 9C119.804 9 9 119.804 9 256C9 392.196 119.804 503 256 503C392.196 503 503 392.196 503 256C503 119.804 392.196 9 256 9ZM256 479C133.037 479 33 378.963 33 256C33 133.038 133.037 33 256 33C378.963 33 479 133.038 479 256C479 378.963 378.963 479 256 479ZM348.613 256C348.613 262.628 343.241 268 336.613 268H256C249.372 268 244 262.628 244 256V149.136C244 142.509 249.372 137.136 256 137.136C262.628 137.136 268 142.509 268 149.136V244H336.613C343.241 244 348.613 249.373 348.613 256ZM244 91.125V55.329C244 48.702 249.373 43.329 256 43.329C262.627 43.329 268 48.702 268 55.329V91.126C268 97.753 262.627 103.126 256 103.126C249.373 103.126 244 97.753 244 91.125ZM364.099 147.901C359.412 143.214 359.412 135.616 364.099 130.93L389.411 105.618C394.098 100.931 401.695 100.932 406.382 105.618C411.069 110.305 411.069 117.903 406.382 122.589L381.07 147.901C379.957 149.017 378.634 149.902 377.178 150.505C375.722 151.108 374.161 151.418 372.585 151.416C371.009 151.418 369.447 151.109 367.991 150.506C366.535 149.902 365.212 149.017 364.099 147.901ZM468.672 256C468.672 262.627 463.299 268 456.672 268H420.875C414.248 268 408.875 262.627 408.875 256C408.875 249.373 414.248 244 420.875 244H456.672C463.299 244 468.672 249.373 468.672 256ZM406.382 389.411C411.069 394.098 411.069 401.695 406.382 406.382C404.039 408.725 400.968 409.897 397.897 409.897C394.826 409.897 391.754 408.725 389.412 406.382L364.1 381.07C359.413 376.383 359.413 368.786 364.1 364.099C368.786 359.413 376.385 359.413 381.071 364.099L406.382 389.411ZM268 420.875V456.671C268 463.299 262.627 468.671 256 468.671C249.373 468.671 244 463.299 244 456.671V420.875C244 414.248 249.373 408.875 256 408.875C262.627 408.875 268 414.248 268 420.875ZM147.901 364.099C152.588 368.786 152.588 376.383 147.901 381.07L122.589 406.382C120.246 408.725 117.175 409.897 114.104 409.897C111.033 409.897 107.962 408.725 105.619 406.382C100.932 401.695 100.932 394.098 105.619 389.411L130.931 364.099C135.616 359.413 143.214 359.413 147.901 364.099ZM103.126 256C103.126 262.627 97.753 268 91.126 268H55.329C48.702 268 43.329 262.627 43.329 256C43.329 249.373 48.702 244 55.329 244H91.126C97.753 244 103.126 249.373 103.126 256ZM147.901 130.931C152.588 135.618 152.588 143.216 147.901 147.902C146.788 149.018 145.465 149.903 144.009 150.506C142.553 151.109 140.992 151.419 139.416 151.417C137.84 151.419 136.279 151.11 134.823 150.507C133.366 149.903 132.044 149.018 130.931 147.902L105.619 122.59C100.932 117.903 100.932 110.305 105.619 105.619C110.306 100.932 117.903 100.933 122.59 105.619L147.901 130.931Z" fill="white"/>
</svg>
