<svg width="384" height="451" viewBox="0 0 384 451" fill="none" xmlns="http://www.w3.org/2000/svg">
<path d="M192 0.975998L0 70.8V226C0 401.36 186.32 449.072 188.192 449.552L192 450.464L195.808 449.552C197.68 449.072 384 401.36 384 226V70.8L192 0.975998ZM352 226C352 364.864 217.44 410.112 192.064 417.408C167.584 410.16 32 363.664 32 226V93.2L192 35.024L352 93.2V226Z" fill="white"/>
<path d="M107.312 214.688L84.688 237.312L160 312.624L299.312 173.312L276.688 150.688L160 267.376L107.312 214.688Z" fill="white"/>
</svg>
