<svg width="800" height="276" viewBox="0 0 800 276" fill="none" xmlns="http://www.w3.org/2000/svg">
<path d="M123.709 134.139H158.112V182.46C147.378 185.909 133.824 187.8 119.735 187.8C62.6338 187.8 29.0735 138.902 29.0735 91.1475C29.0735 44.31 59.4294 11.4563 101.78 11.4563C128.579 11.4563 144.172 20.5351 158.122 33.1814V48.9467L184.28 22.7888C167.735 11.5951 143.777 0.956787 109.534 0.956787C34.3607 0.956787 0 54.7369 0 98.934C0 161.844 45.8217 199.742 103.404 199.742C131.325 199.742 156.115 195.48 184.751 187.512V137.589C184.751 135.036 185.873 133.284 187.549 131.746L196.586 122.71H135.223L123.709 134.139Z" fill="#889BB9"/>
<path d="M277.826 68.4717C234.557 68.4717 207.748 100.089 207.748 133.649C207.748 162.616 229.346 197.008 273.105 197.008C315.199 197.008 341.025 165.329 341.025 131.181C341.025 99.3732 315.786 68.4834 277.826 68.4834V68.4717ZM270.647 77.6896C301.153 77.6896 314.739 117.434 314.739 145.781C314.739 187.939 283.112 188.772 279.331 188.772C264.858 188.772 254.743 180.026 247.171 168.553C240.506 157.98 233.991 138.337 233.991 119.143C233.991 100.024 240.249 90.6884 250.098 83.8205C258.151 78.6722 265.692 77.6896 270.636 77.6896H270.647Z" fill="#889BB9"/>
<path d="M560.672 68.4609C522.881 68.4609 502.438 92.3867 502.438 119.1C502.438 139.437 517.006 162.38 547.063 162.38H554.667C554.667 162.38 552.596 167.41 552.585 172.27C552.585 179.438 555.159 183.464 560.627 189.659C508.909 192.81 488.124 213.67 488.124 236.09C488.124 255.722 506.924 275.044 546.432 275.044C593.204 275.044 617.429 249.077 617.429 223.594C617.429 205.628 608.478 195.78 585.813 178.797C579.148 173.617 577.855 170.318 577.855 166.441C577.855 160.886 581.177 157.211 582.395 155.823C584.542 153.559 588.259 150.974 589.647 149.735C597.263 143.284 608.019 133.736 608.019 114.68C608.019 101.606 602.581 90.3593 590.192 79.8278H605.316L616.681 68.4633H560.672V68.4609ZM550.247 76.963C557.105 76.963 562.828 79.3879 568.874 84.4186C575.581 90.4641 586.296 106.71 586.296 126.812C586.296 148.505 569.441 154.443 560.319 154.443C555.854 154.443 550.505 153.194 545.975 150.096C535.913 143.571 525.925 126.203 525.925 105.535C525.925 86.8857 537.034 76.963 550.247 76.963ZM565.211 197.894C568.094 197.894 570.167 198.13 570.167 198.13C570.167 198.13 576.971 202.99 581.724 206.62C592.79 215.368 599.689 222.055 599.689 233.965C599.689 250.339 584.5 263.178 559.901 263.178C532.901 263.178 512.264 250.606 512.264 230.078C512.264 213.073 526.406 198.438 565.211 197.894Z" fill="#889BB9"/>
<path d="M624.864 193.258H676.742L684.645 185.356L669.766 183.497C665.761 183.006 663.38 179.545 663.38 176.191V19.4896C663.38 16.4027 664.811 14.8219 665.857 13.8168L675.215 4.46021H630.974L619.459 15.9744H636.656V178.294C636.656 180.601 635.93 182.171 634.37 183.784L624.864 193.258Z" fill="#889BB9"/>
<path d="M747.034 68.4717C718.067 68.4717 687.295 90.5494 687.295 130.187C687.295 162.923 709.373 197.008 750.623 197.008C760.909 197.008 769.379 195.684 777.315 192.042C785.828 188.122 794.02 181.756 800 173.756C788.712 179.449 779.504 183.187 767.273 183.187C744.031 183.187 721.623 166.418 713.783 135.593L795.888 102.406C791.146 85.4983 777.773 68.4717 747.045 68.4717H747.034ZM741.671 77.5399C757.213 77.5399 768.448 90.3252 768.448 100.333C768.448 103.57 766.42 105.279 762.403 106.86L711.935 127.271C711.935 127.271 710.569 120.916 710.569 114.048C710.569 85.2411 731.397 77.5399 741.671 77.5399Z" fill="#889BB9"/>
<path d="M424.648 68.4717C381.379 68.4717 354.569 100.089 354.569 133.649C354.569 162.616 376.167 197.008 419.927 197.008C462.021 197.008 487.847 165.329 487.847 131.181C487.847 99.3732 462.608 68.4834 424.648 68.4834V68.4717ZM417.469 77.6896C447.975 77.6896 461.56 117.434 461.56 145.781C461.56 187.939 429.934 188.772 426.153 188.772C411.68 188.772 401.565 180.026 393.993 168.553C387.328 157.98 380.812 138.337 380.812 119.143C380.812 100.024 387.071 90.6884 396.92 83.8205C404.973 78.6722 412.514 77.6896 417.458 77.6896H417.469Z" fill="#889BB9"/>
</svg>
