<svg width="800" height="178" viewBox="0 0 800 178" fill="none" xmlns="http://www.w3.org/2000/svg">
<path d="M225.462 142.755L272.135 80.1011L231.036 21.9982H250.068L272.082 52.8841C276.668 59.2871 279.843 64.1907 281.677 67.595C284.394 63.3793 287.604 58.8814 291.291 54.1365L315.403 21.9982H332.919L290.973 79.3955L336.129 142.755H316.515L286.052 99.6804C284.306 97.2286 282.648 94.7944 281.095 92.3779C278.397 96.4172 276.492 99.2571 275.31 100.862L244.688 142.755H225.462ZM352.921 142.755V21.9982H368.938V142.773H352.921V142.755ZM383.843 142.755L430.163 21.9805H447.731L496.891 142.755H478.723L464.753 106.154H413.9L400.794 142.755H383.843ZM418.592 93.1716H459.743L447.149 59.6928C443.357 49.515 440.482 41.1189 438.488 34.4866C436.83 42.3536 434.608 50.0795 431.821 57.7348L418.592 93.1716ZM504.705 83.9817C504.705 63.9614 510.103 48.2803 520.863 36.9561C531.622 25.6318 545.522 19.9697 562.544 19.9697C573.709 19.9697 583.746 22.6508 592.706 27.9602C601.649 33.2695 608.476 40.6955 613.168 50.2206C617.86 59.728 620.223 70.5231 620.223 82.5882C620.223 94.812 617.754 105.784 612.797 115.414C607.841 125.081 600.856 132.401 591.807 137.34C582.723 142.314 572.951 144.783 562.455 144.783C551.061 144.783 540.918 142.032 531.958 136.546C523.015 131.06 516.206 123.581 511.602 114.091C506.998 104.619 504.705 94.5827 504.705 83.9817ZM521.233 84.2639C521.233 98.7985 525.149 110.246 532.945 118.589C540.759 126.933 550.567 131.131 562.385 131.131C574.415 131.131 584.275 126.915 592.071 118.484C599.832 110.052 603.713 98.0753 603.713 82.5529C603.713 72.7456 602.055 64.1731 598.739 56.8529C595.423 49.5503 590.554 43.8706 584.187 39.8489C577.784 35.8272 570.605 33.8163 562.649 33.8163C551.343 33.8163 541.624 37.6969 533.474 45.4581C525.308 53.2016 521.233 66.131 521.233 84.2639ZM640.455 142.755V21.9982H664.409L692.966 107.477C695.612 115.432 697.517 121.394 698.734 125.363C700.11 120.971 702.28 114.515 705.19 105.995L734.259 21.9982H755.656V142.773H740.31V41.7362L705.067 142.773H690.673L655.801 39.8841V142.773H640.455V142.755ZM783.984 142.755V21.9982H800V142.773H783.984V142.755Z" fill="#889BB9"/>
<path d="M3.70419 0.725525H176.69C178.736 0.725525 180.394 2.34831 180.394 4.3768V173.641C180.394 175.652 178.736 177.292 176.69 177.292H3.70419C1.65807 177.292 0 175.652 0 173.641V4.3768C0 2.34831 1.65807 0.725525 3.70419 0.725525Z" fill="#889BB9"/>
<path d="M138.431 43.7295H160.674V134.165H138.431V43.7295ZM59.1966 78.6194H81.9333V133.424H59.1966V78.6194ZM19.9674 43.7295L42.2102 43.9764H97.5791C111.655 43.9764 121.18 56.3237 121.18 69.2355C121.198 89.8555 121.427 133.918 121.427 133.918L99.8369 134.006L99.4312 76.0618C99.3783 67.9655 93.8572 62.7267 85.8139 62.6032C75.4598 62.4621 49.1953 62.762 42.1926 62.8502V134.147H19.9674V43.7295Z" fill="white"/>
</svg>
