<svg width="512" height="512" viewBox="0 0 512 512" fill="none" xmlns="http://www.w3.org/2000/svg">
<path d="M256 0C150.112 0 64 86.112 64 192C64 325.088 237.312 499.936 244.672 507.328C247.683 510.32 251.755 512 256 512C260.245 512 264.317 510.32 267.328 507.328C274.688 499.936 448 325.088 448 192C448 86.112 361.888 0 256 0ZM256 472.864C217.792 431.968 96 293.664 96 192C96 103.776 167.776 32 256 32C344.224 32 416 103.776 416 192C416 293.568 294.208 431.968 256 472.864Z" fill="white"/>
<path d="M256 96C203.072 96 160 139.072 160 192C160 244.928 203.072 288 256 288C308.928 288 352 244.928 352 192C352 139.072 308.928 96 256 96ZM256 256C220.704 256 192 227.296 192 192C192 156.704 220.704 128 256 128C291.296 128 320 156.704 320 192C320 227.296 291.296 256 256 256Z" fill="white"/>
</svg>
