<svg width="800" height="266" viewBox="0 0 800 266" fill="none" xmlns="http://www.w3.org/2000/svg">
<path d="M799.506 63.4363C788.628 0.974922 600.953 -18.5174 380.307 19.8974C287.643 36.0387 203.972 59.8462 138.813 86.6301C148.822 86.8493 156.245 89.1444 160.755 93.6429C164.282 97.1732 166.063 102.018 166.063 108.055V114.251H144.427V108.78C144.427 104.222 141.694 101.397 136.852 101.397C132.784 101.397 130.278 103.234 129.469 106.852C129.198 108.282 129.228 109.753 129.557 111.171C131.872 120.634 163.999 126.511 167.493 143.975C167.951 146.223 168.573 151.032 167.593 157.913C165.589 171.998 153.213 177.433 137.458 177.433C115.467 177.433 106.534 167.018 106.534 152.658L106.55 145.864H129.744L129.756 154.327C129.756 159.085 133.214 161.71 137.924 161.71C142.387 161.71 144.993 159.913 145.893 156.24C146.312 154.55 146.495 152.06 145.734 150.155C141.442 139.389 111.443 134.361 107.749 116.952C106.925 113.04 106.857 109.708 107.542 105.497C107.894 103.409 108.54 101.382 109.463 99.4762C37.1875 133.277 -5.09222 170.468 0.494075 202.58C11.3838 265.049 199.055 284.521 419.697 246.107C516.689 229.224 603.886 203.95 670.248 175.628C669.288 175.676 668.355 175.78 667.359 175.78C652.258 175.78 638.774 170.122 637.376 154.686C637.129 151.877 637.085 150.701 637.077 149.099L637.085 113.613C637.085 112.083 637.264 109.398 637.436 108.011C639.225 93.093 651.019 86.9409 667.367 86.9409C680.018 86.9409 695.53 90.5708 697.235 108.023C697.462 110.215 697.438 112.553 697.434 113.322V116.673H675.583V111.673C675.583 111.565 675.551 109.697 675.312 108.529C674.954 106.748 673.436 102.62 667.212 102.62C661.064 102.62 659.47 106.756 659.072 108.533C658.844 109.509 658.737 110.912 658.737 112.466V151.032C658.717 152.371 658.785 153.419 658.92 154.188C659.028 154.793 660.131 160.109 667.288 160.109C674.392 160.109 675.492 154.793 675.591 154.188C675.779 153.144 675.802 151.901 675.795 151.032V139.082H667.196V126.212H697.602V149.107C697.594 150.665 697.57 151.817 697.307 154.686C696.94 158.734 695.665 162.161 693.665 165.089C764.044 131.671 805.02 95.0813 799.506 63.4363ZM227.377 174.138L216.308 98.9264H215.909L204.557 174.138H181.228L196.919 89.2002H234.983L250.578 174.138H227.377ZM339.589 174.138L339.075 100.381H338.7L324.973 174.138H303.079L289.42 100.381H289.029L288.531 174.138H266.835L268.716 89.2002H303.612L313.773 152.295H314.271L324.459 89.2002H359.34L361.213 174.138H339.589ZM441.756 157.678C439.421 174.13 423.303 177.007 411.912 177.007C392.997 177.007 381.299 168.922 381.299 152.47L381.311 145.76H404.226L404.242 154.12C404.242 158.658 407.441 161.436 412.382 161.436C416.789 161.436 419.371 159.666 420.267 156.033C420.682 154.339 420.853 151.869 420.12 150.004C415.896 139.441 386.132 134.265 382.514 117.128C381.685 113.243 381.625 109.944 382.307 105.776C384.825 90.2401 399.735 87.0127 411.736 87.0127C422.471 87.0127 430.284 89.3556 434.97 94.0414C438.465 97.5398 440.234 102.341 440.234 108.314V114.442H418.805V109.035C418.805 104.405 415.932 101.727 411.314 101.727C407.218 101.727 404.74 103.548 403.927 107.131C403.663 108.546 403.698 110.001 404.03 111.402C406.325 120.821 438.17 126.579 441.656 143.88C442.106 146.087 442.724 150.825 441.756 157.678ZM521.119 149.96C521.151 151.554 520.996 154.738 520.908 155.554C519.601 169.548 509.592 176.66 491.236 176.66C472.807 176.66 462.79 169.548 461.491 155.554C461.344 153.699 461.273 151.838 461.28 149.976V89.1802H483.203V151.893C483.179 153.295 483.251 154.331 483.39 155.052C483.661 156.447 485.048 160.973 491.236 160.973C497.404 160.973 498.79 156.443 499.081 155.068C499.205 154.327 499.28 153.239 499.28 151.889V89.1802H521.119V149.96ZM615.572 173.274H585.067L564.591 105.995H564.248L565.383 173.274H544.122V89.2002H575.907L594.833 153.829H595.275L594.156 89.2002H615.572V173.274Z" fill="#889BB9"/>
</svg>
