<svg width="777" height="152" viewBox="0 0 777 152" fill="none" xmlns="http://www.w3.org/2000/svg">
<path fill-rule="evenodd" clip-rule="evenodd" d="M758.26 1.41113C761.315 1.41113 764.307 2.19136 767.225 3.76019C770.103 5.29827 772.469 7.642 774.036 10.5045C775.658 13.4221 776.476 16.4726 776.476 19.6476C776.476 22.7853 775.675 25.8067 774.069 28.6995C772.515 31.5477 770.177 33.8911 767.333 35.4521C764.567 37.0249 761.442 37.8542 758.26 37.8593C755.079 37.8535 751.953 37.0242 749.188 35.4521C746.338 33.8917 743.995 31.5486 742.435 28.6995C740.859 25.9424 740.027 22.8232 740.02 19.6476C740.02 16.4726 740.837 13.4221 742.468 10.5045C744.041 7.6401 746.415 5.29641 749.3 3.76019C752.042 2.23877 755.124 1.43103 758.26 1.41113ZM758.26 4.4284C755.699 4.4284 753.209 5.0883 750.785 6.3998C748.362 7.7113 746.465 9.59141 745.095 12.0235C743.726 14.4639 743.045 17.0039 743.045 19.6476C743.045 22.2665 743.717 24.7816 745.062 27.1888C746.399 29.596 748.279 31.4761 750.694 32.8208C752.999 34.1341 755.604 34.8289 758.256 34.8378C760.908 34.828 763.513 34.1332 765.818 32.8208C768.19 31.5176 770.139 29.5634 771.437 27.1888C772.774 24.7816 773.438 22.2665 773.438 19.6476C773.438 16.9997 772.766 14.4597 771.404 12.0235C770.043 9.59141 768.146 7.7113 765.714 6.3998C763.282 5.0883 760.8 4.4284 758.26 4.4284ZM750.267 29.7163V10.1102H756.994C759.306 10.1102 760.974 10.2845 762.004 10.6456C763.033 11.0067 763.851 11.6417 764.469 12.5423C765.075 13.4512 765.386 14.4058 765.386 15.4185C765.386 16.8545 764.876 18.0996 763.855 19.1579C762.826 20.2246 761.473 20.8139 759.779 20.9509C760.476 21.2372 761.037 21.5817 761.448 21.9884C762.232 22.7645 763.199 24.0594 764.349 25.8814L766.739 29.7163H762.871L761.128 26.6243C759.758 24.2005 758.663 22.6774 757.82 22.0673C757.243 21.6149 756.393 21.3908 755.284 21.3908H753.429V29.7163H750.267ZM753.429 18.6848H757.272C759.103 18.6848 760.352 18.4025 761.024 17.8589C761.349 17.5993 761.609 17.2676 761.783 16.8901C761.958 16.5126 762.042 16.0997 762.029 15.6841C762.031 15.1277 761.861 14.5841 761.543 14.1277C761.208 13.6632 760.743 13.3081 760.207 13.1067C759.63 12.8743 758.576 12.7664 757.019 12.7664H753.429V18.6848ZM406.86 0.211677H407.466V42.1134H365.133V0.211677H406.86ZM222.619 88.8211L320.53 94.893C324.601 94.893 327.93 98.2258 327.93 102.293C327.93 106.36 324.601 109.693 320.53 109.693H180.992V55.1495C185.279 71.9915 200.037 85.7665 222.619 88.8211ZM180.992 151.831H323.646C344.44 151.831 361.9 136.828 365.747 117.114C369.142 136.762 386.329 151.831 406.865 151.831H498.01C518.371 151.831 535.45 137.006 539.036 117.591V151.831H685.173C708.763 151.831 728.062 132.532 728.062 108.934V102.862C728.062 79.2712 708.763 59.9722 685.173 59.9722L677.155 59.6194C631.688 57.619 586.358 55.328 540.949 52.983C544.485 70.8004 559.522 85.6337 583.067 88.8211L682.052 94.893C684.014 94.8985 685.894 95.6796 687.281 97.066C688.669 98.4523 689.453 100.331 689.46 102.293C689.453 104.255 688.669 106.134 687.281 107.52C685.894 108.906 684.014 109.688 682.052 109.693H539.733V52.9208L497.404 50.7377V99.2965C497.395 102.571 496.091 105.708 493.775 108.024C491.46 110.339 488.323 111.643 485.048 111.652H419.826C416.552 111.644 413.413 110.34 411.098 108.025C408.782 105.709 407.478 102.571 407.471 99.2965V46.0977L365.133 43.9146V92.0501C360.294 73.8426 343.485 60.7151 323.646 60.7151L137.201 48.5256V151.835L180.992 151.831ZM358.405 42.1341V0H222.619C202.573 0 185.632 13.9327 180.992 32.5967V0.207529H99.9398L72.3194 42.1134H179.742L358.405 42.1341ZM119.322 47.488L52.3729 151.831H0L70.6302 44.6782L119.322 47.488ZM728.058 42.1341V0H583.063C559.734 0 540.605 18.8798 540.181 42.1134L728.058 42.1341ZM497.4 42.1134V0.211677H539.729V42.1134H497.4Z" fill="#889BB9"/>
</svg>
