<svg width="512" height="512" viewBox="0 0 512 512" fill="none" xmlns="http://www.w3.org/2000/svg">
<path d="M412.174 484.972C408.174 484.972 404.202 483.788 400.795 481.478L272.058 394.152L203.01 443.836C200.342 445.754 197.247 446.996 193.993 447.453C190.738 447.909 187.421 447.568 184.328 446.458C181.235 445.348 178.458 443.503 176.236 441.081C174.014 438.659 172.415 435.734 171.575 432.556L136.905 301.169L13.0271 253.801C9.21637 252.343 5.93431 249.769 3.61014 246.416C1.28598 243.063 0.0279017 239.086 0.000458723 235.006C-0.0269842 230.926 1.17748 226.933 3.45633 223.549C5.73517 220.164 8.98232 217.546 12.7731 216.037L483.805 28.6106C487.206 27.1674 490.937 26.6811 494.595 27.2043C498.253 27.7276 501.698 29.2405 504.559 31.5796C507.419 33.9187 509.586 36.995 510.825 40.4761C512.064 43.9572 512.328 47.7107 511.589 51.331L432.081 468.499C431.199 473.132 428.727 477.313 425.094 480.32C421.46 483.327 416.891 484.972 412.174 484.972ZM283.361 352.841L398.036 430.624L459.901 106.021L236.461 321.027L282.821 352.476C283.007 352.592 283.185 352.716 283.361 352.841ZM187.899 335.544L203.253 393.723L236.334 369.919L193.017 340.535C191.028 339.188 189.295 337.498 187.899 335.544ZM76.0296 234.491L161.09 267.012C164.094 268.161 166.781 270.008 168.93 272.401C171.079 274.793 172.627 277.663 173.448 280.772L184.235 321.654C184.733 316.9 186.895 312.474 190.339 309.159L403.246 104.292L76.0296 234.491Z" fill="white"/>
</svg>
