<svg width="512" height="512" viewBox="0 0 512 512" fill="none" xmlns="http://www.w3.org/2000/svg">
<path d="M100.429 73.1428H411.286V420.571H100.429V73.1428ZM265 475.429C265 477.853 264.037 480.179 262.322 481.894C260.608 483.608 258.282 484.571 255.857 484.571C253.432 484.571 251.107 483.608 249.392 481.894C247.678 480.179 246.714 477.853 246.714 475.429C246.714 473.004 247.678 470.678 249.392 468.964C251.107 467.249 253.432 466.286 255.857 466.286C258.282 466.286 260.608 467.249 262.322 468.964C264.037 470.678 265 473.004 265 475.429Z" fill="#616B89"/>
<path d="M438.714 27.4286C438.714 12.2811 426.433 0 411.286 0H100.429C85.2811 0 73 12.2811 73 27.4286V484.571C73 499.719 85.2811 512 100.429 512H411.286C426.433 512 438.714 499.719 438.714 484.571V27.4286ZM255.857 9.14286C265.955 9.14286 274.143 17.3303 274.143 27.4286C274.143 37.5269 265.955 45.7143 255.857 45.7143C245.759 45.7143 237.571 37.5269 237.571 27.4286C237.571 17.3303 245.759 9.14286 255.857 9.14286ZM255.857 502.857C240.71 502.857 228.429 490.576 228.429 475.429C228.429 460.281 240.71 448 255.857 448C271.005 448 283.286 460.281 283.286 475.429C283.286 490.576 271.005 502.857 255.857 502.857ZM429.571 438.857H82.1429V54.8571H429.571V438.857Z" fill="#616B89"/>
</svg>
