<svg width="512" height="512" viewBox="0 0 512 512" fill="none" xmlns="http://www.w3.org/2000/svg">
<path d="M382.08 72H129.92L144.24 39.76C147.385 32.6897 152.513 26.6826 159.001 22.4657C165.49 18.2489 173.062 16.003 180.8 16H331.2C338.938 16.003 346.51 18.2489 352.999 22.4657C359.487 26.6826 364.615 32.6897 367.76 39.76L382.08 72ZM144.24 472.24C147.385 479.31 152.513 485.317 159.001 489.534C165.49 493.751 173.062 495.997 180.8 496H331.2C338.938 495.997 346.51 493.751 352.999 489.534C359.487 485.317 364.615 479.31 367.76 472.24L382.08 440H129.92L144.24 472.24ZM440 209.44V302.56C444.668 300.909 448.712 297.855 451.577 293.817C454.441 289.778 455.986 284.952 456 280V232C455.986 227.048 454.441 222.222 451.577 218.183C448.712 214.145 444.668 211.091 440 209.44ZM56 232V280C56.0139 284.952 57.559 289.778 60.4235 293.817C63.288 297.855 67.3316 300.909 72 302.56V209.44C67.3316 211.091 63.288 214.145 60.4235 218.183C57.559 222.222 56.0139 227.048 56 232ZM256 252.688L310.76 197.944C316.678 192.014 320.002 183.978 320.002 175.6C320.002 167.222 316.678 159.186 310.76 153.256C304.739 147.507 296.733 144.299 288.408 144.299C280.083 144.299 272.078 147.507 266.056 153.256L261.656 157.656C260.156 159.156 258.121 159.998 256 159.998C253.879 159.998 251.844 159.156 250.344 157.656L245.944 153.256C240.018 147.328 231.98 143.997 223.598 143.995C215.216 143.994 207.176 147.322 201.248 153.248C195.32 159.174 191.989 167.212 191.987 175.594C191.986 183.976 195.314 192.016 201.24 197.944L256 252.688ZM424 128V384C423.987 394.605 419.769 404.772 412.27 412.27C404.772 419.769 394.605 423.987 384 424H128C117.395 423.987 107.228 419.769 99.7298 412.27C92.2311 404.772 88.0127 394.605 88 384V128C88.0127 117.395 92.2311 107.228 99.7298 99.7298C107.228 92.2311 117.395 88.0127 128 88H384C394.605 88.0127 404.772 92.2311 412.27 99.7298C419.769 107.228 423.987 117.395 424 128ZM176 175.6C175.98 181.852 177.201 188.046 179.592 193.824C181.982 199.601 185.496 204.846 189.928 209.256L250.344 269.656C251.844 271.156 253.879 271.998 256 271.998C258.121 271.998 260.156 271.156 261.656 269.656L322.072 209.256C330.914 200.44 335.937 188.502 336.06 176.016C336.183 163.531 331.394 151.497 322.727 142.509C314.06 133.52 302.208 128.298 289.726 127.966C277.244 127.634 265.132 132.221 256 140.736C249.213 134.43 240.732 130.241 231.599 128.684C222.466 127.127 213.077 128.269 204.583 131.971C196.09 135.672 188.861 141.772 183.784 149.522C178.707 157.272 176.001 166.335 176 175.6ZM384 336C384 333.878 383.157 331.843 381.657 330.343C380.157 328.843 378.122 328 376 328H332.28L318.656 307.56C317.879 306.393 316.808 305.451 315.552 304.828C314.296 304.206 312.898 303.924 311.499 304.011C310.1 304.099 308.748 304.553 307.579 305.327C306.411 306.101 305.466 307.169 304.84 308.424L279.36 359.384L238.856 291.88C238.144 290.63 237.095 289.604 235.83 288.92C234.564 288.236 233.132 287.92 231.696 288.008C230.262 288.062 228.869 288.5 227.663 289.277C226.457 290.054 225.482 291.141 224.84 292.424L199.008 344.096L190.656 331.56C189.925 330.465 188.935 329.567 187.774 328.946C186.613 328.325 185.317 328 184 328H136C133.878 328 131.843 328.843 130.343 330.343C128.843 331.843 128 333.878 128 336C128 338.122 128.843 340.157 130.343 341.657C131.843 343.157 133.878 344 136 344H179.72L193.344 364.44C194.121 365.607 195.192 366.549 196.448 367.172C197.704 367.794 199.102 368.076 200.501 367.989C201.9 367.901 203.252 367.447 204.421 366.673C205.589 365.899 206.534 364.831 207.16 363.576L232.64 312.616L273.144 380.12C273.855 381.303 274.86 382.282 276.061 382.962C277.263 383.642 278.62 384 280 384L280.304 383.992C281.738 383.938 283.131 383.5 284.337 382.723C285.543 381.946 286.518 380.859 287.16 379.576L312.992 327.904L321.344 340.44C322.075 341.535 323.065 342.433 324.226 343.054C325.387 343.675 326.683 344 328 344H376C378.122 344 380.157 343.157 381.657 341.657C383.157 340.157 384 338.122 384 336Z" fill="#616B89"/>
</svg>
