<svg width="512" height="512" viewBox="0 0 512 512" fill="none" xmlns="http://www.w3.org/2000/svg">
<path d="M369.846 0H141.582C132.417 0.0231722 123.635 3.67406 117.154 10.1544C110.674 16.6348 107.023 25.4174 107 34.5819V477.403C107.023 486.569 110.674 495.353 117.154 501.836C123.633 508.319 132.416 511.973 141.582 512H369.846C379.011 511.977 387.793 508.326 394.274 501.846C400.754 495.365 404.405 486.583 404.428 477.418V34.5819C404.405 25.4174 400.754 16.6348 394.274 10.1544C387.793 3.67406 379.011 0.0231722 369.846 0ZM219.201 24.9271H292.227C293.339 24.9271 294.405 25.3686 295.191 26.1546C295.976 26.9406 296.418 28.0066 296.418 29.1182C296.418 30.2297 295.976 31.2957 295.191 32.0817C294.405 32.8677 293.339 33.3093 292.227 33.3093H219.201C218.09 33.3093 217.024 32.8677 216.238 32.0817C215.452 31.2957 215.01 30.2297 215.01 29.1182C215.01 28.0066 215.452 26.9406 216.238 26.1546C217.024 25.3686 218.09 24.9271 219.201 24.9271ZM255.714 494.709C251.128 494.709 246.73 492.887 243.488 489.645C240.245 486.402 238.423 482.004 238.423 477.418C238.423 472.832 240.245 468.434 243.488 465.191C246.73 461.949 251.128 460.127 255.714 460.127C260.3 460.127 264.698 461.949 267.941 465.191C271.183 468.434 273.005 472.832 273.005 477.418C273.005 482.004 271.183 486.402 267.941 489.645C264.698 492.887 260.3 494.709 255.714 494.709ZM380.364 448H131.064V54.8425H380.364V448Z" fill="#616B89"/>
</svg>
