<svg width="512" height="512" viewBox="0 0 512 512" fill="none" xmlns="http://www.w3.org/2000/svg">
<g clip-path="url(#clip0_12_23)">
<path d="M492.044 106.768C473.562 84.7987 439.44 75.8371 374.274 75.8371H137.721C71.0639 75.8371 36.3636 85.3768 17.9514 108.767C0 131.572 0 165.174 0 211.681V300.321C0 390.418 21.2992 436.163 137.721 436.163H374.275C430.787 436.163 462.101 428.255 482.36 408.867C503.136 388.985 512 356.522 512 300.321V211.681C512 162.636 510.611 128.836 492.044 106.768ZM328.706 268.238L221.288 324.378C218.771 325.696 215.956 326.341 213.117 326.252C210.277 326.163 207.508 325.343 205.078 323.872C202.649 322.4 200.639 320.326 199.246 317.85C197.852 315.374 197.12 312.581 197.122 309.74V197.82C197.122 194.984 197.853 192.195 199.244 189.722C200.635 187.25 202.639 185.178 205.063 183.705C207.488 182.232 210.251 181.409 213.086 181.314C215.921 181.219 218.733 181.856 221.25 183.164L328.668 238.942C331.349 240.334 333.596 242.435 335.167 245.015C336.737 247.596 337.569 250.558 337.573 253.579C337.577 256.6 336.752 259.564 335.189 262.148C333.625 264.733 331.383 266.839 328.706 268.238Z" fill="white"/>
</g>
<defs>
<clipPath id="clip0_12_23">
<rect width="512" height="512" fill="white"/>
</clipPath>
</defs>
</svg>
