<svg width="512" height="512" viewBox="0 0 512 512" fill="none" xmlns="http://www.w3.org/2000/svg">
<path fill-rule="evenodd" clip-rule="evenodd" d="M425.103 69.756C380.196 24.7972 320.475 0.02625 256.85 0C125.747 0 19.0475 106.696 18.995 237.835C18.977 279.756 29.9277 320.677 50.7432 356.748L17 480L143.091 446.923C177.834 465.876 216.948 475.863 256.753 475.875H256.854C387.942 475.875 494.653 369.17 494.703 238.025C494.73 174.469 470.012 114.712 425.103 69.756ZM256.85 435.705H256.767C221.295 435.69 186.505 426.157 156.147 408.148L148.932 403.862L74.108 423.491L94.079 350.539L89.3765 343.06C69.587 311.583 59.1365 275.203 59.1545 237.849C59.1957 128.85 147.883 40.1715 256.929 40.1715C309.734 40.1887 359.372 60.7785 396.696 98.1465C434.019 135.514 454.563 185.185 454.545 238.01C454.499 347.017 365.817 435.705 256.85 435.705ZM365.289 287.641C359.348 284.665 330.127 270.292 324.678 268.306C319.234 266.323 315.267 265.335 311.31 271.282C307.346 277.23 295.958 290.618 292.489 294.582C289.02 298.549 285.558 299.047 279.613 296.071C273.669 293.097 254.52 286.819 231.819 266.572C214.152 250.813 202.226 231.351 198.757 225.404C195.294 219.451 198.727 216.544 201.364 213.274C207.798 205.285 214.24 196.909 216.221 192.946C218.204 188.978 217.211 185.507 215.723 182.533C214.24 179.56 202.355 150.307 197.403 138.403C192.576 126.82 187.68 128.383 184.029 128.203C180.567 128.029 176.603 127.994 172.639 127.994C168.678 127.994 162.238 129.479 156.789 135.433C151.343 141.383 135.992 155.759 135.992 185.012C135.992 214.265 157.287 242.524 160.258 246.491C163.228 250.459 202.167 310.487 261.783 336.228C275.963 342.357 287.031 346.01 295.665 348.749C309.903 353.272 322.856 352.634 333.098 351.104C344.517 349.396 368.257 336.726 373.214 322.844C378.165 308.962 378.165 297.064 376.677 294.582C375.195 292.104 371.231 290.618 365.289 287.641Z" fill="white"/>
</svg>
